{"title":"Yesterday (1985), Radoslaw Piwowarski - DVDRip","uid":9908525,"size":1533024046,"categoryP":"video","categoryS":"movies","magnet":"?xt=urn:btih:d017f875aed1fb0a0f972140b165ec633631746d&amp;dn=Yesterday+%281985%29%2C+Radoslaw+Piwowarski+-+DVDRip&amp;tr=udp%3A%2F%2Ftracker.openbittorrent.com%3A80&amp;tr=udp%3A%2F%2Fopen.demonii.com%3A1337&amp;tr=udp%3A%2F%2Ftracker.coppersurfer.tk%3A6969&amp;tr=udp%3A%2F%2Fexodus.desync.com%3A6969","seeders":1,"leechers":1,"uploader":"noriegaRJ","files":-1,"time":1396849247,"description":"Title: Yesterday\n\n\nIMDB Link:                              &lt;a href=&quot;\nhttp://www.imdb.com/title/tt0090352/&quot; rel=&quot;nofollow&quot; target=&quot;_NEW&quot;&gt;\nhttp://www.imdb.com/title/tt0090352/&lt;/a&gt;\n\n\nPlot: Set in the 60's. In a small provincial town four high school teenagers are facing the graduation, but all that is on their minds is how to woo the home crowd to a concert full of Beatles hits, played by their band. They do not have amplifiers to do the show, so they put together some makeshift equipment which eventually leaves one of them electrocuted.\n\n\nSUBTITLE in ENGLISH.\n\n\n\nGeneral\nComplete name                            : Yesterday (1985), Radoslaw Piwowarski - DVDRip\nFormat                                   : Matroska\nFormat version                           : Version 2\nFile size                                : 1.43 GiB\nDuration                                 : 1h 27mn\nOverall bit rate                         : 2 334 Kbps\nWriting application                      : HandBrake 0.9.9\nWriting library                          : libmkv 0.6.5\n\nVideo\nID                                       : 1\nFormat                                   : AVC\nFormat/Info                              : Advanced Video Codec\nFormat profile                           : &lt;a class=&quot;__cf_email__&quot; href=&quot;/cdn-cgi/l/email-protection&quot; data-cfemail=&quot;1b567a72755b572f352b&quot;&gt;[email&amp;#160;protected]&lt;/a&gt;&lt;script cf-hash='f9e31' type=&quot;text/javascript&quot;&gt;\n/* &lt;![CDATA[ */!function(){try{var t=&quot;currentScript&quot;in document?document.currentScript:function(){for(var t=document.getElementsByTagName(&quot;script&quot;),e=t.length;e--;)if(t[e].getAttribute(&quot;cf-hash&quot;))return t[e]}();if(t&amp;&amp;t.previousSibling){var e,r,n,i,c=t.previousSibling,a=c.getAttribute(&quot;data-cfemail&quot;);if(a){for(e=&quot;&quot;,r=parseInt(a.substr(0,2),16),n=2;a.length-n;n+=2)i=parseInt(a.substr(n,2),16)^r,e+=String.fromCharCode(i);e=document.createTextNode(e),c.parentNode.replaceChild(e,c)}}}catch(u){}}();/* ]]&gt; */&lt;/script&gt;\nFormat settings, CABAC                   : Yes\nFormat settings, ReFrames                : 4 frames\nCodec ID                                 : V_MPEG4/ISO/AVC\nDuration                                 : 1h 27mn\nBit rate                                 : 2 000 Kbps\nWidth                                    : 720 pixels\nHeight                                   : 584 pixels\nDisplay aspect ratio                     : 4:3\nOriginal display aspect ratio            : 4:3\nFrame rate mode                          : Constant\nFrame rate                               : 25.000 fps\nColor space                              : YUV\nChroma subsampling                       : 4:2:0\nBit depth                                : 8 bits\nScan type                                : Progressive\nBits/(Pixel*Frame)                       : 0.190\nStream size                              : 1.20 GiB (84%)\nLanguage                                 : English\nDefault                                  : Yes\nForced                                   : No\nColor primaries                          : BT.601 PAL\nTransfer characteristics                 : BT.709\nMatrix coefficients                      : BT.601\n\nAudio\nID                                       : 2\nFormat                                   : AC-3\nFormat/Info                              : Audio Coding 3\nMode extension                           : CM (complete main)\nFormat settings, Endianness              : Big\nCodec ID                                 : A_AC3\nDuration                                 : 1h 27mn\nBit rate mode                            : Constant\nBit rate                                 : 320 Kbps\nChannel count                            : 2 channels\nChannel positions                        : Front: L R\nSampling rate                            : 48.0 KHz\nBit depth                                : 16 bits\nCompression mode                         : Lossy\nStream size                              : 200 MiB (14%)\nLanguage                                 : Polish\nDefault                                  : Yes\nForced                                   : No\n\n\n\nThanks to those helping me seed. Leechers remember, the community depends on you. If nobody shares, the freebies go away. Remember, the only reason you can download this free movie is because others are generous enough to keep sharing it with you. If nobody shares, everybody loses, so even if its for an extra hour or two after you get it, remember, others want to see it too, and they can't without you.\n\n\nSEE MY OTHERS UPLOADS:                                                      &lt;a href=&quot;\nhttp://thepiratebay.se/user/noriegaRJ&quot; rel=&quot;nofollow&quot; target=&quot;_NEW&quot;&gt;\nhttp://thepiratebay.se/user/noriegaRJ&lt;/a&gt;\n\nAND SEE THIS ANOTHERS UPLOADS FROM &quot;HORiZON-ArtSubs&quot;:      &lt;a href=&quot;\nhttp://thepiratebay.se/user/artsubs&quot; rel=&quot;nofollow&quot; target=&quot;_NEW&quot;&gt;\nhttp://thepiratebay.se/user/artsubs&lt;/a&gt;      &lt;a href=&quot;\nhttp://thepiratebay.se/user/lletaif&quot; rel=&quot;nofollow&quot; target=&quot;_NEW&quot;&gt;\nhttp://thepiratebay.se/user/lletaif&lt;/a&gt;\t\t\t","torrent":{"xt":"urn:btih:d017f875aed1fb0a0f972140b165ec633631746d","amp;dn":"Yesterday+%281985%29%2C+Radoslaw+Piwowarski+-+DVDRip","amp;tr":["udp%3A%2F%2Ftracker.openbittorrent.com%3A80","udp%3A%2F%2Fopen.demonii.com%3A1337","udp%3A%2F%2Ftracker.coppersurfer.tk%3A6969","udp%3A%2F%2Fexodus.desync.com%3A6969"],"infoHash":"d017f875aed1fb0a0f972140b165ec633631746d","infoHashBuffer":{"type":"Buffer","data":[208,23,248,117,174,209,251,10,15,151,33,64,177,101,236,99,54,49,116,109]},"announce":[],"urlList":[]}}